<mxfile host="app.diagrams.net" modified="2023-07-02T22:47:50.949Z" agent="Mozilla/5.0 (X11; Linux x86_64; rv:102.0) Gecko/20100101 Firefox/102.0" etag="lRl7PDD01MPnCCtwhqhh" version="21.5.2" type="github">
  <diagram name="Page-1" id="CK9nf4KCI2I7pFjc9x5D">
    <mxGraphModel dx="1028" dy="568" grid="1" gridSize="10" guides="1" tooltips="1" connect="1" arrows="1" fold="1" page="1" pageScale="1" pageWidth="850" pageHeight="1100" math="0" shadow="0">
      <root>
        <mxCell id="0" />
        <mxCell id="1" parent="0" />
        <mxCell id="klHbuM8uDpRpoRBJuKRg-9" value="" style="shape=note;whiteSpace=wrap;html=1;backgroundOutline=1;darkOpacity=0.05;" vertex="1" parent="1">
          <mxGeometry x="440" y="10" width="400" height="550" as="geometry" />
        </mxCell>
        <mxCell id="klHbuM8uDpRpoRBJuKRg-10" value="&lt;h1&gt;Business rules&lt;/h1&gt;&lt;ol&gt;&lt;li&gt;Installed via wizard GUI / CLI tool.&lt;/li&gt;&lt;li&gt;Prompt to create super user at first run.&lt;/li&gt;&lt;li&gt;Automatically run migrations on run&lt;/li&gt;&lt;li&gt;Automatically detect changes in migrations sql files and restart server&lt;/li&gt;&lt;li&gt;Gracefully shutdown and restart &lt;/li&gt;&lt;li&gt;Full control over database&lt;/li&gt;&lt;li&gt;Real time database connection&lt;/li&gt;&lt;li&gt;Data analytics&lt;/li&gt;&lt;/ol&gt;&lt;div&gt;&lt;br&gt;&lt;/div&gt;&lt;div&gt;&lt;br&gt;&lt;/div&gt;" style="text;html=1;strokeColor=none;fillColor=none;spacing=5;spacingTop=-20;whiteSpace=wrap;overflow=hidden;rounded=0;fontColor=#ffffff;align=left;fontStyle=0;verticalAlign=top;" vertex="1" parent="1">
          <mxGeometry x="450" y="10" width="380" height="530" as="geometry" />
        </mxCell>
        <mxCell id="klHbuM8uDpRpoRBJuKRg-16" value="" style="shape=note;whiteSpace=wrap;html=1;backgroundOutline=1;darkOpacity=0.05;" vertex="1" parent="1">
          <mxGeometry x="10" y="10" width="400" height="80" as="geometry" />
        </mxCell>
        <mxCell id="klHbuM8uDpRpoRBJuKRg-18" value="&lt;h1&gt;Description&lt;/h1&gt;Standalone, self hosted, backend as a service." style="text;html=1;strokeColor=none;fillColor=none;spacing=5;spacingTop=-20;whiteSpace=wrap;overflow=hidden;rounded=0;fontColor=#ffffff;align=left;fontStyle=0;verticalAlign=top;" vertex="1" parent="1">
          <mxGeometry x="20" y="10" width="380" height="70" as="geometry" />
        </mxCell>
        <mxCell id="klHbuM8uDpRpoRBJuKRg-19" value="&lt;h1&gt;Description&lt;/h1&gt;Standalone, self hosted, backend as a service. Keep it vanilla, self host it, selg debug it, self deploy it, manage your own backend as a service." style="text;html=1;strokeColor=none;fillColor=none;spacing=5;spacingTop=-20;whiteSpace=wrap;overflow=hidden;rounded=0;fontColor=#ffffff;align=left;fontStyle=0;verticalAlign=top;" vertex="1" parent="1">
          <mxGeometry x="20" y="10" width="380" height="70" as="geometry" />
        </mxCell>
        <mxCell id="klHbuM8uDpRpoRBJuKRg-20" value="" style="shape=note;whiteSpace=wrap;html=1;backgroundOutline=1;darkOpacity=0.05;" vertex="1" parent="1">
          <mxGeometry x="10" y="100" width="400" height="460" as="geometry" />
        </mxCell>
        <mxCell id="klHbuM8uDpRpoRBJuKRg-21" value="&lt;h1&gt;Features&lt;br&gt;&lt;/h1&gt;&lt;div&gt;&lt;ul&gt;&lt;li&gt;Authentication, authorization, roles.&lt;/li&gt;&lt;li&gt;PostgreSQL databases, real time snapshots, rest APIs.&lt;/li&gt;&lt;li&gt;Functions (lambda) (typescript with node, maybe Kotlin jvm functions)&lt;br&gt;&lt;/li&gt;&lt;li&gt;File storage&lt;/li&gt;&lt;li&gt;Web App manager (create, manage, deploy, configure web apps, create from template, create from scratch, use any web framework, transparent and vanilla deploy workflow assisted with GUI)&lt;br&gt;&lt;/li&gt;&lt;li&gt;Web App studio (builder)&lt;br&gt;&lt;/li&gt;&lt;li&gt;&lt;br&gt;&lt;/li&gt;&lt;/ul&gt;&lt;/div&gt;&lt;div&gt;&lt;br&gt;&lt;/div&gt;" style="text;html=1;strokeColor=none;fillColor=none;spacing=5;spacingTop=-20;whiteSpace=wrap;overflow=hidden;rounded=0;fontColor=#ffffff;align=left;fontStyle=0;verticalAlign=top;" vertex="1" parent="1">
          <mxGeometry x="20" y="100" width="380" height="450" as="geometry" />
        </mxCell>
      </root>
    </mxGraphModel>
  </diagram>
</mxfile>
